<?xml version="1.0" encoding="utf-8"?>
<svg width="37" height="45" viewBox="0 0 26 34" fill="none" xmlns="http://www.w3.org/2000/svg">
  <defs>
    <style>
        .bike1{fill:#ffffff;stroke:#ffffff}
        .bike2{fill:#ffffff;stroke:#ffffff;stroke-width:0.7}
    </style>
  </defs>
  <path d="M 12.781 0.357 C 6.028 0.357 0.532 5.963 0.532 12.854 C 0.532 14.922 1.04 16.973 2.003 18.793 L 12.112 32.637 C 12.247 32.886 12.502 33.04 12.781 33.04 C 13.06 33.04 13.316 32.886 13.452 32.637 L 23.564 18.786 C 24.524 16.973 25.031 14.922 25.031 12.854 C 25.031 5.963 19.536 0.357 12.781 0.357 Z" fill="red" style=""/>
  <circle stroke="#FFF" cx="5.116" cy="17.427" r="3" id="svg_2" transform="matrix(0.681942, 0, 0, 0.723209, 3.744888, 3.238379)" />
  <circle stroke="#FFF" cx="21.116" cy="17.427" r="3" id="svg_3" transform="matrix(0.681942, 0, 0, 0.723209, 3.744888, 3.238379)" />
  <line stroke="#FFF" x1="21.554" x2="22.918" y1="12.948" y2="12.948" id="svg_4" />
  <line stroke="#FFF" x1="5.188" x2="18.827" y1="10.78" y2="10.78" id="svg_5" />
  <line stroke="#FFF" x1="11.326" x2="9.279" y1="6.44" y2="10.78" id="svg_6" />
  <path stroke="#FFF" d="M 20.191 15.842 L 22.918 15.842 C 23.327 15.842 23.6 15.552 23.6 15.118 L 23.6 13.672 C 23.6 12.082 22.373 10.78 20.872 10.78 L 18.827 10.78 L 16.235 7.453 C 15.69 6.802 14.94 6.44 14.122 6.44 L 8.938 6.44 C 7.915 6.44 6.961 7.091 6.483 8.031 L 5.188 10.78 L 4.506 10.78 C 3.756 10.78 3.142 11.431 3.142 12.226 L 3.142 15.118 C 3.142 15.552 3.415 15.842 3.824 15.842 L 5.188 15.842" id="svg_7" />
  <line stroke="#FFF" x1="9.279" x2="16.099" y1="15.842" y2="15.842" id="svg_8" />
</svg>