<svg width="25.999999999999993" height="34" xmlns="http://www.w3.org/2000/svg" fill="none">
 <g>
  <title>Layer 1</title>
  <path id="svg_1" d="m12.781,0.357c-6.753,0 -12.249,5.606 -12.249,12.497c0,2.068 0.508,4.119 1.471,5.939l10.109,13.844c0.135,0.249 0.39,0.403 0.669,0.403c0.279,0 0.535,-0.154 0.671,-0.403l10.112,-13.851c0.96,-1.813 1.467,-3.864 1.467,-5.932c0,-6.891 -5.495,-12.497 -12.25,-12.497z" fill="red"/>
  <path fill="#FFF" d="m6.66667,22a3,3 0 1 1 3,-3a3,3 0 0 1 -3,3zm0,-4a1,1 0 1 0 1,1a1,1 0 0 0 -1,-1z" id="svg_2"/>
  <path fill="#FFF" d="m18.66667,22a3,3 0 1 1 3,-3a3,3 0 0 1 -3,3zm0,-4a1,1 0 1 0 1,1a1,1 0 0 0 -1,-1z" id="svg_3"/>
  <path fill="#FFF" d="m13.66667,20l-5,0a1,1 0 0 1 0,-2l4,0l0,-10l-8,0l0,8a1,1 0 0 1 -2,0l0,-9a1,1 0 0 1 1,-1l10,0a1,1 0 0 1 1,1l0,12a1,1 0 0 1 -1,1z" id="svg_4"/>
  <path fill="#FFF" d="m21.66667,16a1,1 0 0 1 -1,-1l0,-0.67l-2.2,-2.93a1,1 0 0 0 -0.8,-0.4l-4,0a1,1 0 0 1 0,-2l4,0a3,3 0 0 1 2.4,1.2l2.4,3.2a1,1 0 0 1 0.2,0.6l0,1a1,1 0 0 1 -1,1z" id="svg_5"/>
  <path fill="#FFF" d="m20.66667,14l-2,0a2,2 0 0 1 -2,-2l0,-2l2,0l2,4z" id="svg_6"/>
  <path fill="#FFF" d="m19.66667,14l-3,0a1,1 0 0 1 0,-2l3,0a1,1 0 0 1 0,2z" id="svg_7"/>
 </g>

</svg>