<?xml version="1.0" encoding="utf-8"?>
<svg data-name="019_transport" id="_019_transport" viewBox="0 0 43 43" xmlns="http://www.w3.org/2000/svg">
  <defs>
    <style>
        .bike1{fill:#ffffff;stroke:#ffffff}
        .bike2{fill:#ffffff;stroke:#ffffff;stroke-width:0.7}
    </style>
  </defs>
  <circle cx="21.5" cy="21.5" r="21.5" fill="current" id="svg_1" stroke="current" style="" transform="matrix(0.944337, 0, 0, 0.957282, 0.946279, 1.113269)"/>
  <path class="bike2" d="M 12.602 31.743 C 8.384 31.743 5.748 27.312 7.857 23.767 C 9.966 20.222 15.238 20.222 17.347 23.767 C 17.828 24.575 18.081 25.492 18.081 26.426 C 18.075 29.36 15.625 31.737 12.602 31.743 Z M 12.602 23.472 C 10.259 23.472 8.794 25.933 9.966 27.903 C 11.138 29.872 14.067 29.872 15.238 27.903 C 15.503 27.457 15.644 26.952 15.646 26.438 C 15.653 24.801 14.288 23.472 12.602 23.472 Z" />
  <path class="bike2" d="M 28.431 31.743 C 24.213 31.743 21.577 27.312 23.686 23.767 C 25.795 20.222 31.067 20.222 33.176 23.767 C 33.657 24.575 33.91 25.492 33.91 26.426 C 33.903 29.36 31.454 31.737 28.431 31.743 Z M 28.431 23.472 C 26.088 23.472 24.623 25.933 25.795 27.903 C 26.966 29.872 29.895 29.872 31.067 27.903 C 31.334 27.454 31.475 26.944 31.475 26.426 C 31.475 24.794 30.112 23.472 28.431 23.472 Z" />
  <path class="bike1" d="M 20.517 28.198 C 19.844 28.198 19.299 27.669 19.299 27.017 L 19.299 22.786 L 15.403 19.017 C 14.922 18.555 14.922 17.801 15.403 17.339 L 18.836 14.078 C 19.433 13.376 20.589 13.565 20.916 14.417 C 21.103 14.904 20.941 15.451 20.517 15.767 L 17.972 18.131 L 21.357 21.404 C 21.606 21.634 21.743 21.956 21.734 22.29 L 21.734 27.017 C 21.734 27.669 21.189 28.198 20.517 28.198 Z" style=""/>
  <path class="bike1" d="M 26.994 19.56 L 23.341 19.56 C 23.022 19.559 22.716 19.436 22.489 19.218 L 18.836 15.767 C 18.093 15.213 18.246 14.086 19.112 13.738 C 19.606 13.54 20.176 13.677 20.517 14.078 L 23.816 17.197 L 26.97 17.197 C 27.907 17.197 28.493 18.182 28.024 18.97 C 27.807 19.335 27.405 19.56 26.97 19.56 Z" style=""/>
  <circle class="bike1" cx="14.32" cy="4" r="2" style="" transform="matrix(1.217593, 0, 0, 1.181639, 5.905384, 6.928631)"/>
</svg>