<?xml version="1.0" encoding="utf-8"?>
<svg data-name="019_transport" id="_019_transport" viewBox="0 0 43 43" xmlns="http://www.w3.org/2000/svg">
  <defs>
    <style>
            .bus1{fill:#ffffff;stroke:#ffffff}
            .bus2{fill:#ffffff;stroke:#ffffff;stroke-width:0.7}
        </style>
  </defs>
  <g style="" transform="matrix(1.190688, 0, 0, 1.227832, 0.537219, -0.695562)">
    <title>Layer 1</title>
    <path stroke="current" id="svg_1" d="m17.74336,34.11782c-9.14658,0 -16.55531,-7.25102 -16.55531,-16.20289c0,-8.95187 7.40873,-16.20289 16.55531,-16.20289c9.14658,0 16.55531,7.25102 16.55531,16.20289c0,8.95187 -7.40873,16.20289 -16.55531,16.20289z" opacity="undefined" fill="current"/>
    <path id="svg_2" class="bus1" d="M 12.572 26.634 C 10.08 26.634 8.522 24.082 9.768 22.04 C 11.014 19.999 14.129 19.999 15.375 22.04 C 15.66 22.506 15.809 23.034 15.809 23.571 C 15.809 25.263 14.36 26.634 12.572 26.634 Z M 12.572 22.55 C 11.741 22.55 11.221 23.402 11.637 24.082 C 12.052 24.762 13.091 24.762 13.506 24.082 C 13.6 23.926 13.651 23.75 13.651 23.571 C 13.651 23.008 13.168 22.55 12.572 22.55 Z" style=""/>
    <path id="svg_3" class="bus1" d="M 24.442 26.634 C 21.95 26.634 20.392 24.082 21.638 22.04 C 22.884 19.999 25.999 19.999 27.245 22.04 C 27.53 22.506 27.68 23.034 27.68 23.571 C 27.68 25.263 26.23 26.634 24.442 26.634 Z M 24.442 22.55 C 23.612 22.55 23.092 23.402 23.507 24.082 C 23.923 24.762 24.961 24.762 25.376 24.082 C 25.471 23.926 25.521 23.75 25.521 23.571 C 25.521 23.008 25.038 22.55 24.442 22.55 Z" style=""/>
    <path id="svg_4" class="bus1" d="M 22.284 24.592 L 14.729 24.592 C 13.9 24.592 13.38 23.741 13.795 23.061 C 13.988 22.744 14.344 22.55 14.729 22.55 L 22.284 22.55 C 23.114 22.55 23.633 23.402 23.218 24.082 C 23.026 24.398 22.669 24.592 22.284 24.592 Z" style=""/>
    <path id="svg_5" class="bus1" d="M 10.413 24.592 L 9.335 24.592 C 8.143 24.592 7.176 23.677 7.176 22.55 L 7.176 13.364 C 7.176 11.673 8.626 10.302 10.413 10.302 L 23.363 10.302 C 26.343 10.302 28.758 12.587 28.758 15.405 L 28.758 19.489 C 28.758 20.275 27.859 20.765 27.139 20.372 C 26.806 20.189 26.6 19.854 26.6 19.489 L 26.6 15.405 C 26.6 13.713 25.15 12.343 23.363 12.343 L 10.413 12.343 C 9.817 12.343 9.335 12.801 9.335 13.364 L 9.335 22.55 L 10.413 22.55 C 11.244 22.55 11.764 23.402 11.348 24.082 C 11.155 24.398 10.799 24.592 10.413 24.592 Z" style=""/>
    <path id="svg_6" class="bus1" d="M 26.6 17.446 L 13.651 17.446 C 12.82 17.446 12.301 16.596 12.717 15.917 C 12.909 15.6 13.265 15.405 13.651 15.405 L 26.6 15.405 C 27.431 15.405 27.95 16.256 27.535 16.937 C 27.342 17.252 26.985 17.446 26.6 17.446 Z" style=""/>
    <path id="svg_7" class="bus1" d="M 27.68 16.426 L 27.68 15.405 C 27.68 13.151 25.747 11.322 23.363 11.322 L 23.363 16.426 L 27.68 16.426 Z" style=""/>
  </g>
</svg>