<?xml version="1.0" encoding="utf-8"?>
<svg data-name="019_transport" id="_019_transport" viewBox="0 0 43 43" xmlns="http://www.w3.org/2000/svg">
  <defs>
    <style>
        .m1{fill:#FFF;stroke:#ffffff;stroke-width:0.1}
        .m2{fill:#FFF;stroke:#ffffff;stroke-width:0.3}
    </style>
  </defs>
  <circle cx="21.04733" cy="22.01185" r="19.59496" fill="current" id="svg_1" stroke="current"/>
  <path class="m2" d="M 29.068 31.184 C 25.547 31.184 23.347 27.879 25.107 25.234 C 26.867 22.59 31.269 22.59 33.03 25.234 C 33.431 25.836 33.641 26.522 33.641 27.216 C 33.641 29.409 31.593 31.184 29.068 31.184 Z M 29.068 25.234 C 27.308 25.234 26.208 26.887 27.088 28.209 C 27.967 29.531 30.168 29.531 31.049 28.209 C 31.25 27.907 31.356 27.566 31.356 27.216 C 31.356 26.122 30.333 25.234 29.068 25.234 Z" style=""/>
  <path class="m2" d="M 13.059 31.184 C 9.54 31.184 7.337 27.879 9.098 25.234 C 10.857 22.59 15.26 22.59 17.02 25.234 C 17.422 25.836 17.633 26.522 17.633 27.216 C 17.633 29.409 15.586 31.184 13.059 31.184 Z M 13.059 25.234 C 11.297 25.234 10.2 26.887 11.079 28.209 C 11.96 29.531 14.161 29.531 15.039 28.209 C 15.24 27.907 15.346 27.566 15.346 27.216 C 15.346 26.122 14.324 25.234 13.059 25.234 Z" style=""/>
  <path class="m1" d="M 21.063 28.209 L 14.204 28.209 C 13.323 28.209 12.771 27.383 13.214 26.721 C 13.416 26.414 13.796 26.227 14.204 26.227 L 21.063 26.227 C 21.943 26.227 22.493 27.053 22.054 27.712 C 21.848 28.021 21.471 28.209 21.063 28.209 Z" style=""/>
  <path class="m1" d="M 22.206 25.234 L 19.92 25.234 C 19.616 25.236 19.324 25.132 19.108 24.948 L 14.877 21.268 L 11.916 21.268 C 11.611 21.27 11.321 21.166 11.105 20.981 L 9.961 19.989 C 9.335 19.446 9.623 18.522 10.475 18.324 C 10.873 18.233 11.293 18.332 11.584 18.581 L 12.386 19.285 L 15.346 19.285 C 15.651 19.285 15.942 19.388 16.159 19.573 L 20.389 23.252 L 21.785 23.252 L 25.466 20.516 C 25.674 20.362 25.936 20.276 26.21 20.276 L 29.742 20.276 C 29.999 20.271 30.206 20.093 30.211 19.871 C 30.214 19.76 30.163 19.651 30.073 19.573 L 24.826 15.033 C 24.2 14.489 24.487 13.565 25.339 13.367 C 25.738 13.275 26.158 13.373 26.449 13.624 L 31.685 18.175 C 32.211 18.62 32.504 19.233 32.498 19.871 C 32.498 21.191 31.265 22.259 29.742 22.259 L 26.632 22.259 L 22.95 24.997 C 22.742 25.15 22.479 25.234 22.206 25.234 Z" style=""/>
  <path class="m1" d="M 19.92 21.268 L 11.916 21.268 C 11.036 21.268 10.486 20.441 10.925 19.782 C 11.132 19.474 11.508 19.285 11.916 19.285 L 19.451 19.285 L 21.396 17.59 C 21.613 17.406 21.901 17.302 22.206 17.304 L 24.495 17.304 C 25.374 17.304 25.925 18.129 25.485 18.79 C 25.279 19.095 24.902 19.285 24.495 19.285 L 22.676 19.285 L 20.733 20.981 C 20.515 21.166 20.224 21.27 19.92 21.268 Z" style=""/>
  <path class="m1" d="M 27.925 16.311 L 27.925 21.268 L 29.742 21.268 C 30.983 21.273 31.765 20.111 31.149 19.175 C 31.077 19.066 30.989 18.967 30.885 18.879 Z" style=""/>
</svg>