<?xml version="1.0" encoding="utf-8"?>
<svg id="Layer_1" style="enable-background:new 0 0 64 64;" version="1.1" viewBox="0 0 43 43" xmlns="http://www.w3.org/2000/svg">
  <style type="text/css">
	.st0{fill:#FFF;}
</style>
  <g style="" transform="matrix(0.877622, 0, 0, 0.758315, -5.700457, -1.89182)">
    <g id="Icon-Question" transform="translate(178.000000, 278.000000)">
      <circle fill="current" id="svg_1" stroke="current" style="" cx="-146.104" cy="-245.776" r="12.137" transform="matrix(1.870323, 0, 0, 2.083637, 125.937767, 264.700409)"/>
      <path class="st0" d="M -155.573 -255.617 C -155.117 -256.791 -154.545 -257.75 -153.745 -258.497 C -152.946 -259.242 -151.918 -259.883 -150.776 -260.309 C -149.634 -260.735 -148.262 -260.949 -146.779 -260.949 C -145.636 -260.949 -144.494 -260.735 -143.465 -260.416 C -142.438 -260.096 -141.524 -259.563 -140.725 -259.03 C -139.925 -258.497 -139.354 -257.643 -138.896 -256.791 C -138.44 -255.938 -138.212 -254.871 -138.212 -253.699 C -138.212 -252.206 -138.554 -251.032 -139.24 -249.966 C -139.925 -248.9 -140.839 -247.94 -141.867 -246.981 C -142.781 -246.128 -143.465 -245.489 -143.923 -245.062 C -144.494 -244.636 -144.836 -244.103 -145.065 -243.676 C -145.293 -243.249 -145.522 -242.716 -145.522 -242.077 C -145.636 -241.437 -145.636 -241.01 -145.636 -239.837 L -148.262 -239.837 C -148.262 -241.01 -148.262 -241.544 -148.035 -242.289 C -147.921 -243.143 -147.578 -243.782 -147.234 -244.529 C -146.892 -245.169 -146.321 -245.808 -145.75 -246.448 C -145.065 -247.088 -144.379 -247.728 -143.465 -248.474 C -142.666 -249.114 -141.98 -249.86 -141.524 -250.713 C -140.952 -251.566 -140.725 -252.525 -140.725 -253.485 C -140.725 -254.232 -140.839 -254.978 -141.181 -255.617 C -141.524 -256.258 -141.98 -256.791 -142.438 -257.324 C -142.895 -257.857 -143.58 -258.176 -144.379 -258.39 C -145.065 -258.603 -145.865 -258.817 -146.664 -258.817 C -147.806 -258.817 -148.834 -258.603 -149.634 -258.284 C -150.547 -257.963 -151.233 -257.43 -151.804 -256.791 C -152.374 -256.15 -152.831 -255.404 -153.061 -254.551 C -153.289 -253.699 -153.517 -252.952 -153.402 -251.992 L -156.03 -251.992 C -156.144 -253.485 -156.03 -254.445 -155.573 -255.617 L -155.573 -255.617 Z M -148.72 -236.959 L -145.522 -236.959 L -145.522 -233.973 L -148.72 -233.973 L -148.72 -236.959 Z" id="Fill-48" style=""/>
    </g>
  </g>
</svg>