<?xml version="1.0" encoding="utf-8"?>
<svg data-name="019_transport" id="_019_transport" viewBox="0 0 43 43" xmlns="http://www.w3.org/2000/svg">
  <defs>
    <style>.cls-t{fill:#ffffff;stroke:#ffffff;stroke-width:0.5;}</style>
  </defs>
  <circle cx="21.5" cy="21.5" r="15.68" fill="current" id="svg_1" stroke="current" style="" transform="matrix(1.346121, 0, 0, 1.344345, -7.585936, -7.327057)"/>
  <path class="cls-t" d="M 13.081 35.359 C 9.704 35.359 7.594 31.59 9.283 28.574 C 10.97 25.558 15.19 25.558 16.879 28.574 C 17.262 29.262 17.465 30.042 17.465 30.836 C 17.465 33.335 15.503 35.359 13.081 35.359 Z M 13.081 29.327 C 11.955 29.327 11.252 30.584 11.815 31.59 C 12.378 32.594 13.784 32.594 14.346 31.59 C 14.475 31.36 14.543 31.1 14.543 30.836 C 14.543 30.002 13.888 29.327 13.081 29.327 Z" style=""/>
  <path class="cls-t" d="M 30.624 35.359 C 27.248 35.359 25.137 31.59 26.828 28.574 C 28.515 25.558 32.735 25.558 34.422 28.574 C 34.808 29.262 35.011 30.042 35.011 30.836 C 35.011 33.335 33.047 35.359 30.624 35.359 Z M 30.624 29.327 C 29.499 29.327 28.796 30.584 29.358 31.59 C 29.921 32.594 31.326 32.594 31.89 31.59 C 32.019 31.36 32.087 31.1 32.087 30.836 C 32.087 30.002 31.432 29.327 30.624 29.327 Z" style=""/>
  <path class="cls-t" d="M 23.314 32.344 L 16.004 32.344 C 14.879 32.344 14.175 31.087 14.737 30.081 C 15 29.615 15.482 29.327 16.004 29.327 L 21.852 29.327 L 21.852 14.248 L 10.157 14.248 L 10.157 26.311 C 10.157 27.472 8.939 28.198 7.963 27.618 C 7.511 27.348 7.232 26.85 7.232 26.311 L 7.232 12.741 C 7.232 11.907 7.888 11.232 8.694 11.232 L 23.314 11.232 C 24.122 11.232 24.777 11.907 24.777 12.741 L 24.777 30.836 C 24.777 31.668 24.122 32.344 23.314 32.344 Z" style=""/>
  <path class="cls-t" d="M 35.011 26.311 C 34.203 26.311 33.547 25.636 33.547 24.805 L 33.547 23.793 L 30.332 19.375 C 30.055 18.996 29.622 18.773 29.163 18.773 L 23.314 18.773 C 22.189 18.773 21.487 17.516 22.047 16.51 C 22.309 16.043 22.791 15.756 23.314 15.756 L 29.163 15.756 C 30.543 15.756 31.843 16.427 32.67 17.566 L 36.18 22.391 C 36.37 22.652 36.472 22.97 36.472 23.296 L 36.472 24.805 C 36.472 25.636 35.817 26.311 35.011 26.311 Z" style=""/>
  <path class="cls-t" d="M 33.547 23.296 L 30.624 23.296 C 29.01 23.296 27.702 21.946 27.702 20.28 L 27.702 17.264 L 30.624 17.264 Z" style=""/>
  <path class="cls-t" d="M 32.087 23.296 L 27.702 23.296 C 26.575 23.296 25.871 22.038 26.434 21.034 C 26.696 20.567 27.179 20.28 27.702 20.28 L 32.087 20.28 C 33.212 20.28 33.916 21.537 33.353 22.542 C 33.092 23.009 32.608 23.296 32.087 23.296 Z" style=""/>
</svg>