<?xml version="1.0" encoding="utf-8"?>
<svg data-name="019_transport" id="_019_transport" viewBox="0 0 43 43" xmlns="http://www.w3.org/2000/svg">
  <defs>
    <style>.cls-t1{stroke:#FFF;stroke-width:2.5; stroke-linejoin: round; stroke-miterlimit: 10; fill: none;}</style>
    <style>.cls-t2{stroke:#FFF; stroke-width: 1.3; stroke-linejoin: round; stroke-miterlimit: 10; fill:#FFF}</style>
  </defs>
  <circle cx="21.5" cy="21.5" r="15.68" fill="current" id="svg_1" stroke="current" style="" transform="matrix(1.344347, 0, 0, 1.333696, -7.575605, -7.265074)"/>
  <path class="cls-t1" d="M 7.805 29.242 L 4.37 29.199 L 4.334 22.296 L 23.648 22.148 L 23.606 13.362 L 32.786 13.561 L 37.132 18.92 L 37.218 25.08 L 35.91 27.945"/>
  <path class="cls-t1" d="M 14.422 29.316 L 29.896 29.372"/>
  <path class="cls-t1" d="M 36.979 22.329 L 23.66 22.25 C 23.66 23.181 23.637 28.68 23.637 28.68"/>
  <path class="cls-t1" d="M 30.105 21.857 L 29.214 14.092" transform="matrix(-1, 0, 0, -1, 59.319, 35.949)"/>
  <path class="cls-t2" d="M 11.651 33.697 C 8.221 33.697 6.076 30.084 7.791 27.193 C 9.508 24.303 13.796 24.303 15.511 27.193 C 15.902 27.852 16.109 28.599 16.109 29.361 C 16.109 31.756 14.114 33.697 11.651 33.697 Z M 11.651 27.916 C 10.508 27.916 9.793 29.12 10.365 30.084 C 10.937 31.048 12.366 31.048 12.939 30.084 C 13.069 29.864 13.137 29.615 13.137 29.361 C 13.137 28.563 12.472 27.916 11.651 27.916 Z" style=""/>
  <path class="cls-t2" d="M 48.563 36.751"/>
  <path class="cls-t2" d="M 32.452 33.697 C 29.022 33.697 26.877 30.084 28.592 27.193 C 30.309 24.303 34.597 24.303 36.312 27.193 C 36.704 27.852 36.91 28.599 36.91 29.361 C 36.91 31.756 34.914 33.697 32.452 33.697 Z M 32.452 27.916 C 31.309 27.916 30.594 29.12 31.166 30.084 C 31.738 31.048 33.168 31.048 33.739 30.084 C 33.87 29.864 33.938 29.615 33.938 29.361 C 33.938 28.563 33.273 27.916 32.452 27.916 Z" style=""/>
</svg>