<?xml version="1.0" encoding="utf-8"?>
<svg data-name="019_transport" id="_019_transport" viewBox="0 0 43 43" xmlns="http://www.w3.org/2000/svg">
  <defs>
    <style>.cls-t1{fill:#null;stroke:#ffffff;stroke-width:.5}</style>
    <style>.cls-t2{fill:#FFF;stroke:#FFF;stroke-width:1}</style>
  </defs>
  <circle cx="21.5" cy="21.5" r="15.68" fill="current" id="svg_1" stroke="current" style="" transform="matrix(1.344347, 0, 0, 1.333696, -7.575605, -7.265074)"/>
  <path class="cls-t2" d="M 10.505 34.079 C 7.075 34.079 4.93 30.466 6.645 27.575 C 8.362 24.685 12.65 24.685 14.365 27.575 C 14.756 28.234 14.963 28.981 14.963 29.743 C 14.963 32.138 12.968 34.079 10.505 34.079 Z M 10.505 28.298 C 9.362 28.298 8.647 29.502 9.219 30.466 C 9.791 31.43 11.22 31.43 11.793 30.466 C 11.923 30.246 11.991 29.997 11.991 29.743 C 11.991 28.945 11.326 28.298 10.505 28.298 Z" style=""/>
  <path class="cls-t2" d="M 31.306 34.079 C 27.876 34.079 25.731 30.466 27.446 27.575 C 29.163 24.685 33.451 24.685 35.166 27.575 C 35.558 28.234 35.764 28.981 35.764 29.743 C 35.764 32.138 33.768 34.079 31.306 34.079 Z M 31.306 28.298 C 30.163 28.298 29.448 29.502 30.02 30.466 C 30.592 31.43 32.022 31.43 32.593 30.466 C 32.724 30.246 32.792 29.997 32.792 29.743 C 32.792 28.945 32.127 28.298 31.306 28.298 Z" style=""/>
  <path class="cls-t1" d="M 22.392 31.188 L 13.477 31.188 C 12.333 31.188 11.618 29.984 12.19 29.02 C 12.456 28.574 12.946 28.298 13.477 28.298 L 20.906 28.298 L 20.906 23.962 L 7.534 23.962 L 7.534 25.407 C 7.534 26.52 6.296 27.215 5.305 26.659 C 4.846 26.4 4.562 25.923 4.562 25.407 L 4.562 22.517 C 4.562 21.719 5.228 21.071 6.048 21.071 L 22.392 21.071 C 23.212 21.071 23.878 21.719 23.878 22.517 L 23.878 29.743 C 23.878 30.541 23.212 31.188 22.392 31.188 Z" style=""/>
  <path class="cls-t1" d="M 35.764 25.407 C 34.944 25.407 34.279 24.76 34.279 23.962 L 34.279 20.103 L 31.01 15.868 C 30.728 15.504 30.289 15.29 29.82 15.29 L 23.878 15.29 L 23.878 22.517 C 23.878 23.629 22.64 24.325 21.649 23.768 C 21.19 23.509 20.906 23.033 20.906 22.517 L 20.906 13.845 C 20.906 13.047 21.572 12.399 22.392 12.399 L 29.82 12.399 C 31.223 12.399 32.546 13.043 33.387 14.134 L 36.952 18.759 C 37.146 19.009 37.25 19.314 37.25 19.626 L 37.25 23.962 C 37.25 24.76 36.584 25.407 35.764 25.407 Z" style=""/>
  <path class="cls-t1" d="M 34.279 19.626 L 31.306 19.626 C 29.667 19.626 28.335 18.332 28.335 16.735 L 28.335 13.845 L 31.306 13.845 Z" style=""/>
  <path class="cls-t1" d="M 32.792 19.626 L 28.335 19.626 C 27.191 19.626 26.477 18.422 27.048 17.458 C 27.315 17.011 27.804 16.735 28.335 16.735 L 32.792 16.735 C 33.937 16.735 34.651 17.939 34.079 18.903 C 33.813 19.35 33.323 19.626 32.792 19.626 Z" style=""/>
  <path class="cls-t1" d="M 28.335 31.188 L 22.392 31.188 C 21.248 31.188 20.533 29.984 21.106 29.02 C 21.371 28.574 21.862 28.298 22.392 28.298 L 28.335 28.298 C 29.479 28.298 30.194 29.502 29.622 30.466 C 29.356 30.912 28.865 31.188 28.335 31.188 Z" style=""/>
</svg>