<?xml version="1.0" encoding="utf-8"?>
<svg id="_019_transport" viewBox="0 0 43 43" xmlns="http://www.w3.org/2000/svg">
  <defs>
    <style>.cls-t1{stroke:#FFF;stroke-width:2.5; stroke-linejoin: round; stroke-miterlimit: 10; fill: none;}</style>
    <style>.cls-t2{stroke:#FFF; stroke-width: 1.3; stroke-linejoin: round; stroke-miterlimit: 10; fill:#FFF}</style>
  </defs>
  <circle cx="21.5" cy="21.5" r="15.7" fill="current" id="svg_1" stroke="current" style="" transform="matrix(1.3,0,0,1.3,-7.6,-7.3)"/>
  <path class="cls-t1" d="M 7.8 29.2 L 4.4 29.2 L 4.3 22.3 L 23.6 22.1 L 23.6 13.4 L 32.8 13.6 L 37.1 18.9 L 37.2 25.1 L 35.9 27.9"/>
  <path class="cls-t1" d="M 14.4 29.3 L 29.9 29.4"/>
  <path class="cls-t1" d="M 37 22.3 L 23.7 22.3 C 23.7 23.2 23.6 28.7 23.6 28.7"/>
  <path class="cls-t1" d="M 30.1 21.9 L 29.2 14.1" transform="matrix(-1,0,0,-1,59.3,35.9)"/>
  <path class="cls-t2" d="M 11.7 33.7 C 8.2 33.7 6.1 30.1 7.8 27.2 C 9.5 24.3 13.8 24.3 15.5 27.2 C 15.9 27.9 16.1 28.6 16.1 29.4 C 16.1 31.8 14.1 33.7 11.7 33.7 Z M 11.7 27.9 C 10.5 27.9 9.8 29.1 10.4 30.1 C 10.9 31 12.4 31 12.9 30.1 C 13.1 29.9 13.1 29.6 13.1 29.4 C 13.1 28.6 12.5 27.9 11.7 27.9 Z" style=""/>
  <path class="cls-t2" d="M 48.6 36.8"/>
  <path class="cls-t2" d="M 32.5 33.7 C 29 33.7 26.9 30.1 28.6 27.2 C 30.3 24.3 34.6 24.3 36.3 27.2 C 36.7 27.9 36.9 28.6 36.9 29.4 C 36.9 31.8 34.9 33.7 32.5 33.7 Z M 32.5 27.9 C 31.3 27.9 30.6 29.1 31.2 30.1 C 31.7 31 33.2 31 33.7 30.1 C 33.9 29.9 33.9 29.6 33.9 29.4 C 33.9 28.6 33.3 27.9 32.5 27.9 Z" style=""/>
</svg>