<?xml version="1.0" encoding="utf-8"?>
<svg viewBox="0 0 43 43" xmlns="http://www.w3.org/2000/svg">
  <defs>
    <style type="text/css">
		.sw0{fill:#ffffff;stroke:#ffffff;stroke-width:1;stroke-linecap:round;stroke-linejoin:round;stroke-miterlimit:10;}
	</style>
  </defs>
  <circle cx="21.5" cy="21.5" r="21.5" fill="current" id="svg_1" stroke="current" style="" transform="matrix(0.944337, 0, 0, 0.957282, 0.946279, 1.113269)"/>
  <path class="sw0" d="M 16.234 18.07 L 19.901 15.501 C 20.313 15.21 20.813 15.06 21.322 15.077 C 22.598 15.107 23.712 15.914 24.1 17.085 C 24.312 17.729 24.506 18.164 24.683 18.39 C 25.762 19.779 27.458 20.597 29.257 20.596 L 29.257 22.803 C 26.865 22.806 24.596 21.774 23.077 19.992 L 22.28 24.358 L 24.637 26.267 L 27.18 33.009 L 25.03 33.765 L 22.696 27.579 L 18.817 24.438 C 18.169 23.933 17.856 23.128 18.001 22.336 L 18.583 19.152 L 17.809 19.695 L 15.376 22.927 L 13.524 21.629 L 16.215 18.057 L 16.234 18.07 Z M 19.564 29.074 L 15.887 33.302 L 14.134 31.884 L 17.539 27.97 L 18.393 25.563 L 20.442 27.219 L 19.564 29.074 Z" style=""/>
  <circle class="sw0" cx="24.241" cy="8.905" r="3.8" style="" transform="matrix(0.66309, 0, 0, 0.648442, 6.664128, 6.526101)"/>
</svg>